<svg version="1.2" xmlns="http://www.w3.org/2000/svg" viewBox="0 0 256 256" width="256" height="256"><defs><linearGradient id="P" gradientUnits="userSpaceOnUse"/><linearGradient id="g1" x2="1" href="#P" gradientTransform="matrix(109.012,241.919,-287.734,129.658,20.122,12.801)"><stop stop-color="#a276ff"/><stop offset="1" stop-color="#3969ef"/></linearGradient></defs><style>.a{fill:#fff}.b{opacity:.77;fill:url(#g1)}</style><path fill-rule="evenodd" class="a" d="m36.8 193.9c6 5.5 7.1 14.8 1.8 21l-15.2 17.6c-8.3 9.8-0.1 24.5 12.5 22.3 43.1-7.6 111.9-21.1 140.7-34.4 46.6-17 79.4-58.1 79.4-106 0-63.2-57.1-114.4-127.5-114.4-70.4 0-127.5 51.2-127.5 114.4 0 30.9 13.6 58.9 35.8 79.5z"/><path fill-rule="evenodd" class="b" d="m36.8 193.9c6 5.5 7.1 14.8 1.8 21l-15.2 17.6c-8.3 9.8-0.1 24.5 12.5 22.3 43.1-7.6 111.9-21.1 140.7-34.4 46.6-17 79.4-58.1 79.4-106 0-63.2-57.1-114.4-127.5-114.4-70.4 0-127.5 51.2-127.5 114.4 0 30.9 13.6 58.9 35.8 79.5z"/><path class="a" d="m122.5 54.9c1.6-6.3 10.4-6.3 12 0l3.3 13.5c1.1 4.4 2.9 8.8 5.1 12.8 2.3 4 5.1 7.7 8.4 10.9 3.3 3.3 7 6.1 11 8.4 4 2.3 8.3 4 12.8 5.1l13.5 3.4c6.2 1.5 6.2 10.4 0 11.9l-13.5 3.4c-4.5 1.1-8.8 2.8-12.8 5.1-4 2.3-7.7 5.1-11 8.3-3.3 3.3-6.1 7-8.4 11-2.2 4-4 8.3-5.1 12.8l-3.3 13.5c-1.6 6.2-10.4 6.2-12 0l-3.3-13.5c-1.2-4.5-2.9-8.8-5.1-12.8-2.3-4-5.1-7.7-8.4-11-3.3-3.2-7-6-11-8.3-4-2.3-8.3-4-12.8-5.1l-13.5-3.4c-6.2-1.5-6.2-10.4 0-11.9l13.5-3.4c4.5-1.1 8.8-2.8 12.8-5.1 4-2.3 7.7-5.1 11-8.4 3.3-3.2 6.1-6.9 8.4-10.9 2.2-4.1 3.9-8.4 5.1-12.8z"/></svg>