<svg version="1.2" xmlns="http://www.w3.org/2000/svg" viewBox="0 0 256 256" width="256" height="256"><defs><linearGradient id="P" gradientUnits="userSpaceOnUse"/><linearGradient id="g1" x2="1" href="#P" gradientTransform="matrix(-236.806,170.198,-58.357,-81.196,305.876,87.976)"><stop stop-color="#46a6f7"/><stop offset="1" stop-color="#8364ff"/></linearGradient><linearGradient id="g2" x2="1" href="#P" gradientTransform="matrix(207.199,-149.854,52.905,73.151,52.328,240.865)"><stop stop-color="#ff44d3"/><stop offset="1" stop-color="#cf4bff"/></linearGradient></defs><style>.a{fill:url(#g1)}.b{fill:url(#g2)}</style><path fill-rule="evenodd" d="m220.8 63.4c3 3 4.4 6.9 4.4 10.8v38.8c0 2-0.3 4-1.1 5.9-0.8 1.8-1.9 3.5-3.4 4.9-1.4 1.4-3.1 2.5-5 3.3-1.9 0.7-3.9 1.1-5.9 1-11.9 0-21.6 9.7-21.6 21.7 0.1 2-0.3 3.9-1 5.8-0.8 1.8-1.9 3.5-3.3 4.9-1.4 1.4-3 2.6-4.8 3.4-1.9 0.7-3.8 1.1-5.8 1.2h-105l-21.9 27.3c-0.7 0.9-1.6 1.5-2.7 1.8-1.1 0.3-2.2 0.3-3.2-0.1-1.1-0.3-2-1-2.6-1.9-0.6-0.9-1-2-1-3.1v-39.4c0-5.7-2.3-11.2-6.3-15.3-4.1-4-9.6-6.3-15.3-6.3-2 0.1-4-0.3-5.9-1-1.8-0.8-3.5-1.9-5-3.3-1.4-1.4-2.5-3.1-3.3-4.9-0.8-1.9-1.2-3.9-1.2-5.9v-38.8c0-2 0.4-4 1.2-5.9 0.7-1.9 1.9-3.5 3.3-5 1.4-1.4 3.1-2.5 5-3.2 1.9-0.8 3.9-1.1 5.9-1.1 5.7 0 11.2-2.3 15.3-6.3 4-4.1 6.3-9.6 6.3-15.3 0-2 0.3-4 1.1-5.8 0.7-1.9 1.8-3.6 3.2-5 1.4-1.4 3-2.5 4.9-3.3 1.8-0.8 3.8-1.2 5.8-1.2h121.4c2 0 3.9 0.4 5.8 1.2 1.8 0.8 3.4 1.9 4.8 3.3 1.4 1.5 2.5 3.1 3.2 5 0.8 1.8 1.1 3.8 1.1 5.8 0 2.8 0.6 5.6 1.6 8.3 1.1 2.6 2.7 5 4.7 7 2 2 4.4 3.6 7 4.7 2.6 1.1 5.4 1.6 8.2 1.6h0.1c2 0 4.1 0.3 6 1.1 1.8 0.8 3.6 1.9 5 3.3zm-25.8 10.3c-0.1-5.7-2.4-11.1-6.4-15.1-4.1-4-9.5-6.3-15.2-6.3h-121.6c-5.7 0-11.2 2.3-15.2 6.3-4.1 4-6.4 9.4-6.5 15.1v39.7c0.1 5.7 2.4 11.1 6.5 15.1 4 4 9.5 6.3 15.1 6.3h121.7c5.7 0 11.1-2.3 15.2-6.3 4-4 6.3-9.4 6.4-15.1zm-116-2.9c4 0 7.9 1.6 10.7 4.4 2.9 2.9 4.4 6.7 4.4 10.8v15.1c0 4-1.5 7.9-4.4 10.7-2.8 2.9-6.7 4.5-10.7 4.5-4 0-7.9-1.6-10.7-4.5-2.9-2.8-4.5-6.7-4.5-10.7v-15.1c0-2 0.4-4 1.2-5.8 0.7-1.9 1.8-3.6 3.3-5 1.4-1.4 3-2.5 4.9-3.3 1.8-0.7 3.8-1.1 5.8-1.1zm67.1 0c2 0 4 0.4 5.8 1.1 1.9 0.8 3.6 1.9 5 3.3 1.4 1.4 2.5 3.1 3.3 4.9 0.7 1.9 1.1 3.9 1.1 5.8v15.2c0 4-1.6 7.9-4.4 10.7-2.9 2.9-6.7 4.5-10.8 4.5-4 0-7.8-1.6-10.7-4.5-2.8-2.8-4.4-6.7-4.4-10.7v-15.2c0-1.9 0.4-3.9 1.1-5.8 0.8-1.8 1.9-3.5 3.3-4.9 1.4-1.4 3.1-2.5 4.9-3.3 1.9-0.7 3.8-1.1 5.8-1.1z"/><path class="a" d="m77.7 231.6l21.3-26.6h104.9c2 0 4-0.4 5.8-1.2 1.9-0.7 3.5-1.9 4.9-3.3 1.4-1.4 2.5-3.1 3.2-4.9 0.8-1.9 1.1-3.9 1.1-5.9 0-5.7 2.3-11.2 6.3-15.2 4-4.1 9.5-6.4 15.2-6.4h0.1c2 0.1 4-0.3 5.9-1 1.9-0.8 3.6-1.9 5-3.3 1.4-1.4 2.6-3.1 3.3-5 0.8-1.8 1.2-3.8 1.2-5.8v-38.4c0-3.6-1.2-7.2-3.4-10.1l-4.3-5.5v44c0 2-0.4 4-1.1 5.8-0.8 1.9-1.9 3.6-3.4 5-1.4 1.4-3.1 2.5-5 3.2-1.9 0.8-3.9 1.2-5.9 1.1h-0.1c-5.7 0-11.2 2.3-15.2 6.4-4 4-6.3 9.5-6.3 15.2 0 2-0.3 4-1.1 5.8-0.7 1.9-1.8 3.6-3.2 5-1.4 1.4-3 2.5-4.8 3.3-1.9 0.8-3.8 1.2-5.8 1.2h-105l-23.2 29c-0.9 1.3-1.2 2.8-1 4.4 0.2 1.5 1 2.9 2.2 3.9 1.2 1 2.8 1.5 4.3 1.3 1.6-0.1 3-0.8 4.1-2z"/><path class="b" d="m53.3 203.4l22.6-28.4h105c2 0 4-0.4 5.8-1.2 1.8-0.7 3.5-1.9 4.9-3.3 1.4-1.4 2.4-3.1 3.2-4.9 0.7-1.9 1.1-3.9 1.1-5.8v-0.1c0-11.9 9.6-21.5 21.4-21.6h0.2c2 0.1 4-0.3 5.8-1 1.9-0.8 3.6-1.9 5.1-3.3 1.4-1.4 2.5-3.1 3.3-5 0.8-1.8 1.2-3.8 1.2-5.8v-44.1l5.5 7.3c2.3 2.9 3.5 6.4 3.5 10.1v38.4c0 2-0.4 4-1.2 5.8-0.8 1.9-1.9 3.5-3.4 5-1.4 1.4-3.1 2.5-5 3.2-1.8 0.8-3.8 1.1-5.8 1.1h-0.1c-5.7 0-11.2 2.3-15.3 6.4-4 4-6.2 9.5-6.2 15.2 0 2-0.4 4-1.1 5.8-0.8 1.9-1.8 3.5-3.2 5-1.4 1.4-3.1 2.5-4.9 3.3-1.8 0.8-3.8 1.2-5.8 1.2h-105l-20.4 25.6c-1.2 1.4-2.9 2.4-4.8 2.6-1.9 0.2-3.8-0.4-5.2-1.5-1.5-1.2-2.5-2.9-2.7-4.8-0.2-1.9 0.3-3.8 1.5-5.2z"/></svg>