
<svg version="1.2" xmlns="http://www.w3.org/2000/svg" viewBox="0 0 256 215" width="256" height="215">
	<path fill="#000000" d="m122.3 147.1c0 3.3 2.8 6 6.1 6 3.3 0 6.1-2.7 6.1-6v-125.8c0-11.7-9.6-21.3-21.3-21.3-11.7 0-21.2 9.6-21.2 21.3v92.2 59.7c0 5-4.1 9.1-9.2 9.1-5 0-9.1-4.1-9.1-9.1v-97.4c0-11.8-9.6-21.4-21.2-21.4-11.8 0-21.3 9.6-21.3 21.4v41.2c0 5.1-4.1 9.1-9.1 9.1-5.1 0-9.2-4-9.2-9.1v-15c0-3.3-2.7-6-6-6-3.4 0-6.1 2.7-6.1 6v15c0 11.7 9.6 21.3 21.3 21.3 11.7 0 21.2-9.6 21.2-21.3v-41.2c0-5.1 4.1-9.2 9.2-9.2 5 0 9.1 4.1 9.1 9.2v97.4c0 11.7 9.5 21.2 21.2 21.2 11.7 0 21.3-9.5 21.3-21.2v-151.9c0-5 4.1-9.1 9.1-9.1 5.1 0 9.1 4.1 9.1 9.1z"/>
	<path fill="#000000" d="m234.7 54.4c-11.7 0-21.3 9.6-21.3 21.4v81.3c0 5.1-4.1 9.2-9.1 9.2-5 0-9.2-4.1-9.2-9.2v-135.8c0-11.7-9.4-21.3-21.2-21.3-11.7 0-21.2 9.6-21.2 21.3v172.4c0 5-4.1 9.1-9.2 9.1-5 0-9-4.1-9-9.1v-21.4c0-3.3-2.8-6-6.1-6-3.3 0-6.1 2.7-6.1 6v21.4c0 11.7 9.6 21.3 21.2 21.3 11.8 0 21.3-9.6 21.3-21.3v-172.4c0-5 4.1-9.1 9.1-9.1 5 0 9.2 4.1 9.2 9.1v135.8c0 11.8 9.5 21.3 21.2 21.3 11.7 0 21.2-9.5 21.2-21.3v-81.3c0-5.1 4.1-9.2 9.2-9.2 5 0 9.1 4.1 9.1 9.2v71.3c0 3.3 2.7 6 6.1 6 3.3 0 6-2.7 6-6v-71.3c0-11.8-9.5-21.4-21.2-21.4z"/>
</svg>
