<svg version="1.2" xmlns="http://www.w3.org/2000/svg" viewBox="0 0 936 256" width="936" height="256">
	<title>image</title>
	<style>
		.s0 { fill: #000000 } 
	</style>
	<path class="s0" d="m144.7 175.1c0 4 3.3 7.2 7.3 7.2 3.9 0 7.2-3.2 7.2-7.2v-149.7c0-14-11.4-25.4-25.3-25.4-14 0-25.3 11.4-25.3 25.4v109.8 71c0 6-4.9 10.9-10.9 10.9-6 0-10.9-4.9-10.9-10.9v-116c0-14-11.4-25.4-25.3-25.4-14 0-25.3 11.4-25.3 25.4v49.1c0 6.1-4.9 10.9-10.9 10.9-6 0-10.9-4.8-10.9-10.9v-17.8c0-4-3.2-7.2-7.2-7.2-4 0-7.2 3.2-7.2 7.2v17.8c0 14 11.4 25.4 25.3 25.4 14 0 25.3-11.4 25.3-25.4v-49.1c0-6 4.9-10.9 10.9-10.9 6 0 10.9 4.9 10.9 10.9v116c0 14 11.3 25.3 25.3 25.3 13.9 0 25.3-11.3 25.3-25.3v-180.8c0-6 4.9-10.9 10.9-10.9 6 0 10.8 4.9 10.8 10.9z"/>
	<path class="s0" d="m278.6 64.8c-13.9 0-25.3 11.4-25.3 25.4v96.9c0 6-4.9 10.9-10.9 10.9-6 0-10.9-4.9-10.9-10.9v-161.7c0-14-11.3-25.4-25.3-25.4-13.9 0-25.3 11.4-25.3 25.4v205.2c0 6-4.8 10.9-10.9 10.9-6 0-10.8-4.9-10.8-10.9v-25.4c0-4-3.3-7.2-7.2-7.2-4 0-7.3 3.2-7.3 7.2v25.4c0 14 11.4 25.4 25.3 25.4 14 0 25.4-11.4 25.4-25.4v-205.2c0-6 4.8-10.9 10.8-10.9 6 0 10.9 4.9 10.9 10.9v161.7c0 14 11.4 25.3 25.3 25.3 14 0 25.3-11.3 25.3-25.3v-96.9c0-6 4.9-10.9 10.9-10.9 6 0 10.9 4.9 10.9 10.9v84.9c0 4 3.2 7.2 7.2 7.2 4 0 7.2-3.2 7.2-7.2v-84.9c0-14-11.3-25.4-25.3-25.4z"/>
	<path class="s0" d="m440.2 72.4h17q0.7 0 1.3 0.5 0.5 0.5 0.5 1.3v98.8q0 0.7-0.5 1.3-0.6 0.5-1.3 0.5h-17q-0.8 0-1.3-0.5-0.5-0.5-0.5-1.3v-64.5q0-0.6-0.3-0.6-0.3 0-0.6 0.5l-15.4 24.2q-0.8 1.2-2.1 1.2h-8.6q-1.3 0-2-1.2l-15.5-24.2q-0.3-0.5-0.6-0.4-0.3 0.1-0.3 0.7v64.3q0 0.7-0.5 1.3-0.5 0.5-1.2 0.5h-17.1q-0.7 0-1.2-0.5-0.5-0.5-0.5-1.3v-98.8q0-0.8 0.5-1.3 0.5-0.5 1.2-0.5h17.1q1.3 0 2 1.2l21.9 34q0.4 0.9 0.9 0l22-34q0.7-1.2 2.1-1.2z"/>
	<path class="s0" d="m477.3 174.3q-0.5-0.5-0.5-1.3v-98.8q0-0.8 0.5-1.3 0.5-0.5 1.2-0.5h17.1q0.7 0 1.2 0.5 0.5 0.5 0.5 1.3v98.8q0 0.7-0.5 1.3-0.5 0.5-1.2 0.5h-17.1q-0.7 0-1.2-0.5z"/>
	<path class="s0" d="m574.3 72.9q0.5-0.5 1.2-0.5h17.1q0.7 0 1.2 0.5 0.5 0.5 0.5 1.3v98.8q0 0.7-0.5 1.3-0.5 0.5-1.2 0.5h-16.5q-1.5 0-2.1-1.2l-37.8-62.6q-0.2-0.4-0.5-0.4-0.3 0.1-0.3 0.7l0.3 61.7q0 0.7-0.5 1.3-0.6 0.5-1.3 0.5h-17q-0.8 0-1.3-0.5-0.5-0.5-0.5-1.3v-98.8q0-0.8 0.5-1.3 0.5-0.5 1.3-0.5h16.4q1.5 0 2.1 1.2l37.6 62.3q0.3 0.4 0.6 0.3 0.3 0 0.3-0.6l-0.2-61.4q0-0.8 0.6-1.3z"/>
	<path class="s0" d="m612.6 174.3q-0.5-0.5-0.5-1.3v-98.8q0-0.8 0.5-1.3 0.5-0.5 1.2-0.5h17.1q0.7 0 1.2 0.5 0.5 0.5 0.5 1.3v98.8q0 0.7-0.5 1.3-0.5 0.5-1.2 0.5h-17.1q-0.7 0-1.2-0.5z"/>
	<path class="s0" d="m718.1 72.4h17.1q0.7 0 1.2 0.5 0.5 0.5 0.5 1.3v98.8q0 0.7-0.5 1.3-0.5 0.5-1.2 0.5h-17.1q-0.7 0-1.2-0.5-0.5-0.5-0.5-1.3v-64.5q0-0.6-0.3-0.6-0.3 0-0.6 0.5l-15.5 24.2q-0.7 1.2-2 1.2h-8.6q-1.3 0-2.1-1.2l-15.4-24.2q-0.3-0.5-0.6-0.4-0.3 0.1-0.3 0.7v64.3q0 0.7-0.5 1.3-0.5 0.5-1.3 0.5h-17q-0.7 0-1.3-0.5-0.5-0.5-0.5-1.3v-98.8q0-0.8 0.5-1.3 0.6-0.5 1.3-0.5h17q1.4 0 2.1 1.2l21.9 34q0.4 0.9 0.8 0l22.1-34q0.7-1.2 2-1.2z"/>
	<path class="s0" d="m817.7 173.4l-4.4-14.4q-0.3-0.5-0.7-0.6h-35.9q-0.4 0.1-0.7 0.6l-4.2 14.4q-0.5 1.4-1.9 1.4h-18.5q-0.9 0-1.3-0.5-0.5-0.5-0.2-1.5l31.5-98.9q0.5-1.4 1.9-1.4h22.9q1.4 0 1.9 1.4l31.5 98.9q0.1 0.3 0.1 0.7 0 1.3-1.6 1.3h-18.5q-1.5 0-1.9-1.4zm-35.9-30.9h25.7q0.9 0 0.6-0.9l-13.1-43.4q-0.2-0.6-0.5-0.5-0.3 0-0.4 0.5l-12.8 43.4q-0.2 0.9 0.5 0.9z"/>
	<path class="s0" d="m852.8 174.2q-0.5-0.6 0.1-1.5l28.3-48.7q0.3-0.4 0-0.8l-28.3-48.7-0.3-0.9q0-1.2 1.6-1.2h18.6q1.4 0 2.1 1.2l19 33.5q0.4 0.9 0.9 0l18.9-33.5q0.8-1.2 2.2-1.2h18.4q1 0 1.5 0.6 0.4 0.6-0.2 1.5l-28.3 48.7q-0.1 0.4 0 0.8l28.3 48.7 0.3 0.9q0 1.2-1.6 1.2h-18.4q-1.4 0-2.1-1.2l-19-33.3q-0.4-0.9-0.9 0l-19.1 33.3q-0.7 1.2-2.2 1.2h-18.4q-1 0-1.4-0.6z"/>
</svg>