<svg width="110" height="30" viewBox="0 0 110 30" fill="none" xmlns="http://www.w3.org/2000/svg"><path d="M17.0108 20.5162C17.0108 20.9846 17.3898 21.3636 17.8582 21.3636C18.3267 21.3636 18.7057 20.9846 18.7057 20.5162V2.97381C18.7057 1.33436 17.3713 0 15.7319 0C14.0925 0 12.7581 1.33436 12.7581 2.97381V15.849V24.1602C12.7581 24.8659 12.1849 25.4391 11.4792 25.4391C10.7735 25.4391 10.2003 24.8659 10.2003 24.1602V10.567C10.2003 8.92758 8.86595 7.59322 7.2265 7.59322C5.58706 7.59322 4.2527 8.92758 4.2527 10.567V16.3282C4.2527 17.0339 3.67951 17.6071 2.97381 17.6071C2.26811 17.6071 1.69492 17.0339 1.69492 16.3282V14.2404C1.69492 13.772 1.31587 13.3929 0.847458 13.3929C0.379045 13.3929 0 13.772 0 14.2404V16.3282C0 17.9676 1.33436 19.302 2.97381 19.302C4.61325 19.302 5.94761 17.9676 5.94761 16.3282V10.567C5.94761 9.86133 6.5208 9.28814 7.2265 9.28814C7.9322 9.28814 8.50539 9.86133 8.50539 10.567V24.1602C8.50539 25.7997 9.83975 27.1341 11.4792 27.1341C13.1186 27.1341 14.453 25.7997 14.453 24.1602V2.97381C14.453 2.26811 15.0262 1.69492 15.7319 1.69492C16.4376 1.69492 17.0108 2.26811 17.0108 2.97381V20.5162Z" fill="var(--col_accent04)"></path><path d="M32.7426 7.59322C31.1032 7.59322 29.7688 8.92758 29.7688 10.567V21.9214C29.7688 22.6271 29.1956 23.2003 28.4899 23.2003C27.7842 23.2003 27.2111 22.6271 27.2111 21.9214V2.97381C27.2111 1.33436 25.8767 0 24.2372 0C22.5978 0 21.2634 1.33436 21.2634 2.97381V27.0262C21.2634 27.7319 20.6902 28.3051 19.9845 28.3051C19.2788 28.3051 18.7057 27.7319 18.7057 27.0262V24.0493C18.7057 23.5809 18.3266 23.2019 17.8582 23.2019C17.3898 23.2019 17.0107 23.5809 17.0107 24.0493V27.0262C17.0107 28.6656 18.3451 30 19.9845 30C21.624 30 22.9584 28.6656 22.9584 27.0262V2.97381C22.9584 2.26811 23.5315 1.69492 24.2372 1.69492C24.9429 1.69492 25.5161 2.26811 25.5161 2.97381V21.9214C25.5161 23.5609 26.8505 24.8952 28.4899 24.8952C30.1294 24.8952 31.4637 23.5609 31.4637 21.9214V10.567C31.4637 9.86133 32.0369 9.28814 32.7426 9.28814C33.4483 9.28814 34.0215 9.86133 34.0215 10.567V20.5162C34.0215 20.9846 34.4006 21.3636 34.869 21.3636C35.3374 21.3636 35.7164 20.9846 35.7164 20.5162V10.567C35.7164 8.92758 34.3821 7.59322 32.7426 7.59322Z" fill="var(--col_accent04)"></path><path d="M51.7276 8.48438H53.7319C53.7898 8.48438 53.8368 8.50427 53.8785 8.54407C53.9183 8.58387 53.9382 8.63271 53.9382 8.6906V20.2754C53.9382 20.3333 53.9183 20.3803 53.8785 20.4219C53.8387 20.4635 53.7898 20.4816 53.7319 20.4816H51.7276C51.6697 20.4816 51.6226 20.4617 51.581 20.4219C51.5412 20.3821 51.5213 20.3333 51.5213 20.2754V12.7174C51.5213 12.6722 51.5105 12.6487 51.487 12.6487C51.4635 12.6487 51.4417 12.665 51.4182 12.6993L49.602 15.5449C49.5441 15.6371 49.4645 15.6823 49.3614 15.6823H48.3502C48.2471 15.6823 48.1675 15.6371 48.1096 15.5449L46.2934 12.6993C46.2698 12.665 46.2481 12.6505 46.2246 12.6559C46.2011 12.6613 46.1902 12.6867 46.1902 12.7337V20.2754C46.1902 20.3333 46.1703 20.3803 46.1306 20.4219C46.0908 20.4635 46.0419 20.4816 45.984 20.4816H43.9797C43.9218 20.4816 43.8747 20.4617 43.8331 20.4219C43.7933 20.3821 43.7734 20.3333 43.7734 20.2754V8.6906C43.7734 8.63271 43.7933 8.58568 43.8331 8.54407C43.8729 8.50247 43.9218 8.48438 43.9797 8.48438H45.984C46.0871 8.48438 46.1667 8.5296 46.2246 8.62186L48.7952 12.6143C48.8296 12.683 48.8639 12.683 48.8983 12.6143L51.487 8.62186C51.5449 8.53141 51.6245 8.48438 51.7276 8.48438Z" fill="var(--col_accent04)"></path><path d="M56.0909 20.4219C56.0512 20.3821 56.0312 20.3333 56.0312 20.2754V8.6906C56.0312 8.63271 56.0512 8.58568 56.0909 8.54407C56.1307 8.50246 56.1796 8.48438 56.2375 8.48438H58.2418C58.2997 8.48438 58.3468 8.50427 58.3884 8.54407C58.4282 8.58387 58.4481 8.63271 58.4481 8.6906V20.2754C58.4481 20.3333 58.4282 20.3803 58.3884 20.4219C58.3486 20.4635 58.2997 20.4816 58.2418 20.4816H56.2375C56.1796 20.4816 56.1326 20.4617 56.0909 20.4219Z" fill="var(--col_accent04)"></path><path d="M67.4871 8.54407C67.5269 8.50427 67.5757 8.48438 67.6336 8.48438H69.638C69.6959 8.48438 69.7429 8.50427 69.7845 8.54407C69.8243 8.58387 69.8442 8.63271 69.8442 8.6906V20.2754C69.8442 20.3333 69.8243 20.3803 69.7845 20.4219C69.7447 20.4635 69.6959 20.4816 69.638 20.4816H67.7006C67.5866 20.4816 67.507 20.4364 67.46 20.3441L63.0207 13.0087C62.9972 12.9743 62.9755 12.9598 62.952 12.9652C62.9284 12.9707 62.9176 12.996 62.9176 13.043L62.952 20.2754C62.952 20.3333 62.9321 20.3803 62.8923 20.4219C62.8525 20.4635 62.8036 20.4816 62.7457 20.4816H60.7414C60.6835 20.4816 60.6365 20.4617 60.5949 20.4219C60.5551 20.3821 60.5352 20.3333 60.5352 20.2754V8.6906C60.5352 8.63271 60.5551 8.58568 60.5949 8.54407C60.6346 8.50247 60.6835 8.48438 60.7414 8.48438H62.6788C62.7928 8.48438 62.8724 8.5296 62.9194 8.62186L67.3406 15.9229C67.3641 15.9573 67.3858 15.9718 67.4093 15.9664C67.4328 15.9609 67.4437 15.9356 67.4437 15.8886L67.4274 8.6906C67.4274 8.63271 67.4473 8.58568 67.4871 8.54407Z" fill="var(--col_accent04)"></path><path d="M71.9923 20.4219C71.9525 20.3821 71.9326 20.3333 71.9326 20.2754V8.6906C71.9326 8.63271 71.9525 8.58568 71.9923 8.54407C72.0321 8.50246 72.081 8.48438 72.1388 8.48438H74.1432C74.2011 8.48438 74.2481 8.50427 74.2897 8.54407C74.3295 8.58387 74.3494 8.63271 74.3494 8.6906V20.2754C74.3494 20.3333 74.3295 20.3803 74.2897 20.4219C74.2499 20.4635 74.2011 20.4816 74.1432 20.4816H72.1388C72.081 20.4816 72.0339 20.4617 71.9923 20.4219Z" fill="var(--col_accent04)"></path><path d="M84.3946 8.48438H86.3989C86.4568 8.48438 86.5038 8.50427 86.5454 8.54407C86.5852 8.58387 86.6051 8.63271 86.6051 8.6906V20.2754C86.6051 20.3333 86.5852 20.3803 86.5454 20.4219C86.5056 20.4635 86.4568 20.4816 86.3989 20.4816H84.3946C84.3367 20.4816 84.2896 20.4617 84.248 20.4219C84.2082 20.3821 84.1883 20.3333 84.1883 20.2754V12.7174C84.1883 12.6722 84.1775 12.6487 84.154 12.6487C84.1304 12.6487 84.1087 12.665 84.0852 12.6993L82.269 15.5449C82.2111 15.6371 82.1315 15.6823 82.0284 15.6823H81.0172C80.9141 15.6823 80.8345 15.6371 80.7766 15.5449L78.9604 12.6993C78.9368 12.665 78.9151 12.6505 78.8916 12.6559C78.8681 12.6613 78.8572 12.6867 78.8572 12.7337V20.2754C78.8572 20.3333 78.8373 20.3803 78.7975 20.4219C78.7577 20.4635 78.7089 20.4816 78.651 20.4816H76.6467C76.5888 20.4816 76.5417 20.4617 76.5001 20.4219C76.4603 20.3821 76.4404 20.3333 76.4404 20.2754V8.6906C76.4404 8.63271 76.4603 8.58568 76.5001 8.54407C76.5399 8.50247 76.5888 8.48438 76.6467 8.48438H78.651C78.7541 8.48438 78.8337 8.5296 78.8916 8.62186L81.4622 12.6143C81.4966 12.683 81.5309 12.683 81.5653 12.6143L84.154 8.62186C84.2119 8.53141 84.2914 8.48438 84.3946 8.48438Z" fill="var(--col_accent04)"></path><path d="M96.0983 20.3157L95.5846 18.637C95.561 18.5918 95.5339 18.5683 95.4995 18.5683H91.2828C91.2484 18.5683 91.2195 18.5918 91.1978 18.637L90.7003 20.3157C90.6659 20.4297 90.5917 20.4876 90.4778 20.4876H88.3016C88.2328 20.4876 88.1822 20.4677 88.1478 20.4279C88.1134 20.3881 88.108 20.3284 88.1315 20.2488L91.8327 8.66404C91.8671 8.55007 91.9413 8.49219 92.0552 8.49219H94.7452C94.8591 8.49219 94.9333 8.55007 94.9677 8.66404L98.6689 20.2488C98.6797 20.2723 98.6852 20.2995 98.6852 20.3338C98.6852 20.437 98.6218 20.4876 98.497 20.4876H96.3208C96.2069 20.4876 96.1327 20.4297 96.0983 20.3157ZM91.8834 16.6996H94.8989C94.9677 16.6996 94.9894 16.6652 94.9677 16.5965L93.4246 11.506C93.4138 11.4607 93.3957 11.4408 93.374 11.4463C93.3504 11.4517 93.3342 11.4716 93.3233 11.506L91.8146 16.5965C91.8038 16.6652 91.8255 16.6996 91.8834 16.6996Z" fill="var(--col_accent04)"></path><path d="M100.221 20.4147C100.186 20.3694 100.192 20.3116 100.237 20.2428L103.562 14.5354C103.585 14.5011 103.585 14.4667 103.562 14.4323L100.237 8.72497L100.202 8.62186C100.202 8.53141 100.266 8.48438 100.391 8.48438H102.567C102.681 8.48438 102.766 8.5296 102.824 8.62186L105.052 12.5474C105.087 12.6161 105.121 12.6161 105.155 12.5474L107.384 8.62186C107.442 8.53141 107.527 8.48438 107.641 8.48438H109.801C109.881 8.48438 109.938 8.50789 109.973 8.55312C110.007 8.59834 110.002 8.65623 109.956 8.72497L106.632 14.4323C106.621 14.4667 106.621 14.5011 106.632 14.5354L109.956 20.2428L109.991 20.3459C109.991 20.4382 109.928 20.4834 109.803 20.4834H107.643C107.529 20.4834 107.442 20.4382 107.386 20.3459L105.157 16.4385C105.123 16.3698 105.088 16.3698 105.054 16.4385L102.809 20.3459C102.751 20.4382 102.666 20.4834 102.552 20.4834H100.392C100.313 20.4834 100.255 20.4599 100.221 20.4147Z" fill="var(--col_accent04)"></path></svg>