<svg version="1.2" xmlns="http://www.w3.org/2000/svg" viewBox="0 0 256 256" width="256" height="256"><style>.a{fill:#070d1b}</style><path class="a" d="m99.5 135.7q-0.3 0.3-0.5 0.7-0.3 0.3-0.6 0.6-0.3 0.3-0.6 0.6-0.4 0.2-0.7 0.5-0.4 0.2-0.8 0.4-0.3 0.2-0.7 0.4-0.4 0.2-0.8 0.3-0.4 0.2-0.9 0.3-1.7 0.4-3.6 0.4-0.6 0-1.3 0-0.6-0.1-1.2-0.2-0.6-0.1-1.2-0.3-0.6-0.2-1.2-0.4-0.5-0.2-1.1-0.5-0.5-0.3-1-0.6-0.5-0.3-0.9-0.7-0.5-0.4-0.9-0.8-0.4-0.4-0.8-0.9-0.4-0.5-0.7-1-0.4-0.5-0.6-1-0.3-0.5-0.5-1.1-0.3-0.6-0.5-1.2-0.1-0.7-0.3-1.3-0.1-0.6-0.1-1.3-0.1-0.6-0.1-1.3 0-2.8 1-5.1 0.2-0.6 0.5-1.1 0.2-0.5 0.6-1 0.3-0.5 0.7-1 0.4-0.5 0.8-0.9 0.4-0.4 0.9-0.8 0.4-0.4 0.9-0.7 0.5-0.4 1-0.6 0.6-0.3 1.1-0.5 0.6-0.3 1.2-0.5 0.6-0.1 1.2-0.3 0.6-0.1 1.2-0.1 0.7-0.1 1.3-0.1 1.9 0 3.6 0.5 1.8 0.4 3.2 1.4 1.4 0.9 2.4 2.4 0.3 0.3 0.5 0.7 0.2 0.4 0.4 0.8 0.2 0.4 0.4 0.9 0.1 0.4 0.3 0.8h3.6q-0.6-2.6-2-4.7-0.3-0.5-0.7-0.9-0.4-0.5-0.8-0.9-0.4-0.4-0.9-0.8-0.4-0.4-0.9-0.7-0.5-0.4-1-0.7-0.5-0.3-1.1-0.5-0.5-0.3-1-0.5-0.6-0.2-1.2-0.4-0.5-0.1-1.1-0.3-0.6-0.1-1.2-0.2-0.6-0.1-1.2-0.1-0.6-0.1-1.2-0.1-1.6 0-3.2 0.3-1.5 0.3-3 0.9-1.5 0.6-2.8 1.5-1.3 0.9-2.4 2-0.6 0.5-1 1.1-0.5 0.6-1 1.2-0.4 0.7-0.7 1.4-0.4 0.6-0.7 1.3-0.3 0.8-0.5 1.5-0.3 0.8-0.4 1.6-0.2 0.8-0.3 1.6 0 0.8 0 1.6c0 2.2 0.4 4.3 1.2 6.2q1.2 2.9 3.4 5.1 0.5 0.5 1.1 1 0.6 0.5 1.3 0.9 0.6 0.4 1.3 0.8 0.7 0.4 1.4 0.7 0.7 0.3 1.5 0.5 0.8 0.2 1.6 0.4 0.8 0.2 1.6 0.2 0.8 0.1 1.6 0.1 2.4 0 4.8-0.7 0.5-0.1 1.1-0.4 0.5-0.2 1.1-0.4 0.5-0.3 1-0.6 0.5-0.3 1-0.6 0.5-0.4 0.9-0.7 0.5-0.4 0.9-0.8 0.4-0.5 0.8-0.9 0.4-0.5 0.7-1 1.4-2 2-4.7h-3.6q-0.2 0.4-0.3 0.9-0.2 0.4-0.4 0.8-0.2 0.4-0.4 0.8-0.2 0.4-0.5 0.8zm20.7-16.6q-1.5 0-2.8 0.4-1.4 0.4-2.5 1.1-0.2 0.1-0.5 0.3-0.3 0.2-0.5 0.4-0.2 0.2-0.5 0.5-0.2 0.2-0.4 0.4-0.2 0.3-0.4 0.5-0.2 0.3-0.4 0.5-0.1 0.3-0.3 0.6-0.1 0.2-0.3 0.5l0.1-2.4v-11h-3.5v31.7h3.5v-12.1q0-0.8 0.2-1.6 0.1-0.8 0.4-1.6 0.3-0.7 0.7-1.4 0.5-0.7 1-1.3 0.3-0.3 0.6-0.5 0.3-0.2 0.6-0.5 0.3-0.2 0.6-0.4 0.3-0.1 0.7-0.3 1.4-0.6 2.9-0.6 1.6 0 2.8 0.5 1.3 0.4 2.2 1.4 0.8 1 1.3 2.5 0.5 1.5 0.5 3.5v12.4h3.4v-12.4q0-5.6-2.4-8.4-2.3-2.7-7-2.7zm33.2 5.8q-0.2-0.3-0.4-0.6-0.1-0.4-0.3-0.7-0.2-0.3-0.4-0.6-0.2-0.2-0.5-0.5-0.2-0.3-0.5-0.5-0.2-0.3-0.5-0.5-0.3-0.2-0.6-0.4-0.2-0.3-0.6-0.4-0.3-0.2-0.6-0.4-0.3-0.2-0.6-0.3-0.4-0.2-0.7-0.3-0.4-0.1-0.7-0.2-0.4-0.1-0.8-0.2-0.3-0.1-0.7-0.1-0.4-0.1-0.8-0.1-0.4 0-0.8 0-2.3 0-4.4 0.9-0.5 0.3-0.9 0.5-0.5 0.3-1 0.7-0.4 0.3-0.8 0.6-0.4 0.4-0.8 0.8-0.4 0.4-0.7 0.9-0.4 0.4-0.7 0.9-0.3 0.5-0.5 1-0.3 0.5-0.5 1-0.2 0.6-0.4 1.2-0.1 0.6-0.2 1.2-0.2 0.5-0.2 1.1-0.1 0.6 0 1.3-0.1 2.5 0.8 4.7 0.2 0.5 0.5 1 0.2 0.5 0.5 1 0.3 0.5 0.7 0.9 0.3 0.5 0.7 0.9 0.4 0.4 0.8 0.8 0.4 0.3 0.8 0.7 0.5 0.3 1 0.6 0.4 0.3 0.9 0.5 0.6 0.2 1.1 0.4 0.5 0.2 1.1 0.3 0.6 0.1 1.1 0.2 0.6 0 1.2 0 1.6 0 3-0.4 0.7-0.2 1.4-0.5 0.6-0.2 1.2-0.6 0.6-0.4 1.2-0.9 0.5-0.4 1-1 1-1 1.6-2.3v5.1h3.3v-22.9h-3.3zm-0.8 9.7q-0.2 0.4-0.4 0.8-0.2 0.4-0.4 0.7-0.2 0.4-0.5 0.7-0.2 0.3-0.5 0.6-0.6 0.6-1.3 1.1-0.7 0.5-1.5 0.8-0.8 0.3-1.6 0.5-0.8 0.2-1.7 0.2-0.8 0-1.6-0.2-0.9-0.2-1.6-0.5-0.8-0.3-1.5-0.7-0.7-0.5-1.3-1.1-0.3-0.3-0.5-0.6-0.3-0.4-0.5-0.7-0.3-0.4-0.5-0.7-0.2-0.4-0.3-0.8-0.2-0.4-0.3-0.9-0.2-0.4-0.2-0.8-0.1-0.5-0.2-1 0-0.4 0-0.9 0-1.9 0.7-3.5 0.3-0.8 0.7-1.5 0.5-0.7 1.1-1.3 0.6-0.6 1.2-1.1 0.7-0.4 1.5-0.7 0.4-0.2 0.8-0.3 0.4-0.2 0.8-0.2 0.5-0.1 0.9-0.2 0.4 0 0.8 0 1.8 0 3.3 0.7 1.6 0.7 2.8 1.9 1.1 1.1 1.8 2.8 0.6 1.6 0.7 3.4 0 1.9-0.7 3.5zm14.6-21.8l-3.5 0.1v6.8h-5.2v3h5.2v11.5q0 2.6 0.7 4.3 0.6 1.6 1.6 2.5 1 1 2.3 1.3 1.3 0.3 2.6 0.3h4.1v-2.9h-3.5q-0.7 0-1.5-0.2-0.2-0.1-0.4-0.1-0.2-0.1-0.4-0.2-0.2-0.1-0.3-0.2-0.2-0.2-0.3-0.3-0.6-0.6-1-1.6-0.4-1-0.4-2.8v-11.6h7.8v-3h-7.8c0 0 0-6.9 0-6.9zm31.3 1.8q-0.4-0.4-0.8-0.7-0.4-0.3-0.8-0.6-0.4-0.3-0.9-0.5-0.4-0.2-0.9-0.4-0.5-0.2-1-0.4-0.6-0.1-1.1-0.2-0.5-0.1-1.1-0.1-0.5-0.1-1.1-0.1h-13v31.4h4.8v-10.5h8.3q0.6 0 1.1 0 0.5-0.1 1.1-0.1 0.5-0.1 1-0.3 0.5-0.1 1.1-0.3 0.4-0.2 0.9-0.4 0.4-0.3 0.8-0.5 0.5-0.3 0.8-0.6 0.4-0.3 0.8-0.7 0.3-0.4 0.7-0.7 0.3-0.4 0.6-0.9 0.2-0.4 0.5-0.8 0.2-0.5 0.4-0.9 0.2-0.5 0.3-1.1 0.2-0.5 0.3-1 0.1-0.6 0.1-1.1 0.1-0.6 0.1-1.1c0-1.5-0.3-2.9-0.8-4.1q-0.2-0.5-0.4-0.9-0.3-0.5-0.6-0.9-0.2-0.4-0.6-0.8-0.3-0.4-0.6-0.7zm-15.9 1.4h8.1q0.6 0 1.2 0.1 0.6 0.1 1.1 0.3 0.6 0.2 1.1 0.6 0.4 0.3 0.9 0.7 0.4 0.5 0.7 1 0.3 0.5 0.5 1 0.3 0.6 0.4 1.1 0.1 0.6 0.1 1.2 0 1.3-0.5 2.5-0.1 0.2-0.2 0.5-0.1 0.2-0.3 0.5-0.2 0.2-0.3 0.5-0.2 0.2-0.4 0.4-0.8 0.8-1.9 1.3-0.3 0.1-0.6 0.2-0.3 0.1-0.6 0.1-0.3 0.1-0.6 0.1-0.3 0-0.6 0h-8.1c0 0 0-12.1 0-12.1zm44.6-0.1c-1.4-1.3-3.2-2.4-5.3-3.2-2-0.7-4.3-1.1-6.7-1.1h-11.7v31.4h11.7c2.5 0 4.8-0.4 6.8-1.1q3-1.2 5.2-3.2 0.6-0.5 1.1-1.1 0.5-0.6 0.9-1.2 0.4-0.6 0.8-1.3 0.3-0.7 0.6-1.4c0.8-1.9 1.2-4.1 1.2-6.4 0-2.3-0.4-4.5-1.2-6.4q-0.3-0.7-0.6-1.4-0.4-0.6-0.8-1.3-0.5-0.6-1-1.2-0.4-0.5-1-1.1zm-19 0.1h6.8q2.9 0 5.1 0.8 0.5 0.2 1 0.4 0.5 0.2 1 0.5 0.4 0.3 0.9 0.7 0.4 0.3 0.8 0.7 0.4 0.4 0.7 0.8 0.4 0.4 0.6 0.9 0.3 0.4 0.6 0.9 0.2 0.5 0.4 1 0.8 2.1 0.8 4.7 0 2.6-0.8 4.6-0.2 0.5-0.4 1-0.3 0.5-0.5 0.9-0.3 0.5-0.7 0.9-0.3 0.4-0.7 0.8-1.5 1.4-3.7 2.2-2.2 0.8-5 0.8h-6.9c0 0 0-22.6 0-22.6zm47.8 0v-4.4h-21.3v31.4h4.8v-12.8h14.4v-4.2h-14.4v-10zm-224.6-20c-17.3 0-31.4 13.9-31.4 31.1 0 16.1 12.5 29.4 28.4 30.9v-25.1c0-1.2 0.2-2.4 0.7-3.5 0.4-1.1 1.1-2.1 2-3 0.9-0.9 1.9-1.5 3-2 1.2-0.5 2.4-0.7 3.6-0.7h25v-27.7z"/><path class="a" d="m35 135.7v22.5l27.7-28.6h-21.8c-3.3 0-5.9 2.7-5.9 6.1z"/></svg>