<svg xmlns="http://www.w3.org/2000/svg" fill="none" viewBox="0 0 131 33"><g fill="#070D1B" clip-path="url(#FooterLogo_svg__a)"><path d="M50.914 20.469a4.9 4.9 0 0 1-1.243 1.218 5.4 5.4 0 0 1-1.602.73q-.882.242-1.868.242a6.4 6.4 0 0 1-2.493-.484 6.1 6.1 0 0 1-2.014-1.347 6.2 6.2 0 0 1-1.34-2.062 7 7 0 0 1-.488-2.627q0-1.428.489-2.626a6.4 6.4 0 0 1 1.34-2.07 6.1 6.1 0 0 1 2.013-1.36 6.35 6.35 0 0 1 2.493-.488q.986 0 1.868.242.884.243 1.602.73c.48.327.892.73 1.243 1.219a5.6 5.6 0 0 1 .799 1.694h1.856q-.302-1.379-1.017-2.425a6.9 6.9 0 0 0-1.695-1.743 7.3 7.3 0 0 0-2.17-1.049 8.6 8.6 0 0 0-2.441-.35 8.15 8.15 0 0 0-5.827 2.388 8.1 8.1 0 0 0-1.735 2.61 8.2 8.2 0 0 0-.63 3.224c0 1.15.21 2.203.63 3.204q.629 1.499 1.735 2.61a8.1 8.1 0 0 0 2.603 1.752 8.2 8.2 0 0 0 3.224.637q1.265 0 2.453-.351a7.3 7.3 0 0 0 2.17-1.045 6.9 6.9 0 0 0 1.695-1.735q.714-1.046 1.017-2.437h-1.868a5.6 5.6 0 0 1-.8 1.695zm10.61-8.562q-.767 0-1.457.198c-.46.133-.88.319-1.25.557a4.5 4.5 0 0 0-.997.86 4.4 4.4 0 0 0-.702 1.089l.048-1.243V7.707H55.38V24.04h1.787v-6.266a4.3 4.3 0 0 1 1.19-3.026 4 4 0 0 1 1.251-.872q.711-.315 1.481-.314.81 0 1.457.238.64.238 1.09.742c.298.335.524.763.685 1.275q.237.769.238 1.84v6.38h1.776v-6.404q-.001-2.876-1.219-4.305-1.216-1.43-3.583-1.429zm16.945 3.002a4.8 4.8 0 0 0-.79-1.243 5 5 0 0 0-1.11-.944 5.4 5.4 0 0 0-1.356-.597 5.8 5.8 0 0 0-1.562-.21q-1.204-.001-2.251.488a5.7 5.7 0 0 0-1.82 1.328 6.2 6.2 0 0 0-1.218 1.973 6.6 6.6 0 0 0-.44 2.429q-.001 1.297.44 2.437a6.1 6.1 0 0 0 1.218 1.977 5.8 5.8 0 0 0 1.82 1.327 5.3 5.3 0 0 0 2.263.489q.812 0 1.55-.21a5.13 5.13 0 0 0 2.465-1.537q.49-.552.791-1.235v2.655h1.695v-11.81h-1.695zm-.4 5.02a4.6 4.6 0 0 1-.931 1.44 4.28 4.28 0 0 1-3.087 1.307 4.3 4.3 0 0 1-3.075-1.263 4.5 4.5 0 0 1-.94-1.444 4.8 4.8 0 0 1-.347-1.848c0-.674.113-1.275.343-1.832a4.28 4.28 0 0 1 2.32-2.381 4.3 4.3 0 0 1 1.699-.343c.601 0 1.17.117 1.698.355q.795.351 1.389.969.593.613.932 1.444.341.83.343 1.792c0 .641-.114 1.25-.343 1.803m7.478-11.233-1.775.012v3.527h-2.68v1.565h2.68v5.903q-.001 1.357.319 2.203t.835 1.324 1.178.646q.659.17 1.336.169h2.11v-1.521h-1.776q-.406 0-.806-.097a1.57 1.57 0 0 1-.715-.395q-.314-.295-.512-.832-.199-.533-.198-1.416V13.8h4.003v-1.565h-4.003v-3.54zm16.008.881a5.1 5.1 0 0 0-1.727-1.118 5.9 5.9 0 0 0-2.187-.396H90.97v16.18h2.457v-5.394h4.265a5.8 5.8 0 0 0 2.162-.396 5.1 5.1 0 0 0 1.707-1.117 5.1 5.1 0 0 0 1.122-1.72 5.9 5.9 0 0 0 .403-2.198c0-.795-.137-1.485-.403-2.135a5.15 5.15 0 0 0-1.13-1.702zm-8.13.734h4.148a2.97 2.97 0 0 1 2.183.912 3.17 3.17 0 0 1 .875 2.203c0 .452-.076.875-.23 1.259a3.1 3.1 0 0 1-.637 1c-.27.283-.593.505-.96.662a3.1 3.1 0 0 1-1.207.238h-4.172v-6.278zm22.832-.024c-.742-.702-1.65-1.255-2.695-1.642-1.041-.384-2.211-.582-3.474-.582h-5.968v16.18h6.004c1.263 0 2.429-.193 3.462-.58 1.037-.388 1.941-.94 2.683-1.643a7.2 7.2 0 0 0 1.731-2.566c.404-.993.605-2.11.605-3.313 0-1.202-.206-2.316-.613-3.3a7.4 7.4 0 0 0-1.735-2.554m-9.704.012h3.482c.952 0 1.816.141 2.566.424a5.3 5.3 0 0 1 1.905 1.19 5.3 5.3 0 0 1 1.198 1.848c.279.718.42 1.537.42 2.425q0 1.331-.42 2.405a5.1 5.1 0 0 1-1.194 1.82c-.513.5-1.15.89-1.892 1.161-.747.275-1.602.412-2.538.412h-3.531V10.298zm24.445.036V8.063h-10.89v16.18h2.458v-6.614h7.331v-2.155h-7.331v-5.14zM16.035 0C7.178 0 0 7.178 0 16.035c0 8.336 6.363 15.187 14.497 15.962V19.06a4.77 4.77 0 0 1 4.77-4.77h12.806V0z"/><path d="M17.906 20.473v11.6L32.073 17.31H20.945c-1.679 0-3.039 1.416-3.039 3.159z"/></g><defs><clipPath id="FooterLogo_svg__a"><path fill="#fff" d="M0 0h131v32.073H0z"/></clipPath></defs></svg>