<svg version="1.2" xmlns="http://www.w3.org/2000/svg" viewBox="0 0 512 512" width="512" height="512"><style>.a{fill:#eeb213}</style><path fill-rule="evenodd" class="a" d="m423.3 0l1.3 3.1c2 5 6.7 28.5 8.6 43.3q0.4 4.1 0.8 8.3 0.4 4.1 0.7 8.3 0.3 4.2 0.5 8.4 0.2 4.1 0.3 8.3l0.6 19.5-5.4 8.1c-8.5 12.5-25.2 31.4-62.8 71.1l-34.6 36.7v19.1c0.1 29.8-5.1 57.3-14.9 79.5-3.3 7.3-9.6 17.6-10.4 16.8-0.2-0.2 1.2-6.9 3-15q0.8-3.9 1.6-7.8 0.8-3.9 1.5-7.8 0.6-3.9 1.2-7.9 0.7-3.9 1.2-7.8c6.7-51.6-2.4-92.5-29.8-134.6l-3.1-4.8 11.8-9c21-16 44.2-37 65-58.9 18.3-19.2 44.9-51.3 58-69.9zm-225.2 30.2l114.5 0.1 8.8 2.9c10.1 3.3 25.4 11.8 31.6 17.5l4.3 3.9-25.1 22.4-48.4 43.5c-12.9 11.5-23.2 21.2-23 21.7q0.8 1.3 1.6 2.7 0.8 1.3 1.6 2.7 0.9 1.3 1.7 2.6 0.9 1.4 1.7 2.7c3.5 5.5 6.3 10.3 6.3 10.6 0 0.4-48.3 0.7-107.4 0.7h-107.4v110.4l121.4 0.1c66.7 0.1 121.7 0.1 122.2 0 3.2-0.5-2.1 33.1-8.2 51.1-2.8 8.5-12.2 29.3-16 35.6-15.6 25.3-37.9 48.2-60.1 61.6-17.2 10.3-31.5 14.6-49.4 15l-11.2 0.2-70.7 73.8-0.6-75.1-3-0.6c-1.6-0.3-5.7-0.9-9-1.3-3.3-0.4-9-1.6-12.6-2.6-28.2-7.8-51.1-35.4-59.5-71.5-1.5-6.6-1.8-22.2-2.1-118.5-0.3-69.5 0-115.2 0.7-122.4 2.3-24.4 11.4-44.7 27.4-61.3 14.6-15.2 33.6-25.4 52.1-28.2 1.8-0.3 54.8-0.4 117.8-0.3zm272.8 44.4c0.4 0 0.5 59.8 0.1 69.7-0.2 4.9-23.8 31-49.3 54.4-4.4 4.1-8.6 8-9.3 8.7-3.1 3-32.5 28.1-37.9 32.3l-6.1 4.7-1.3 9.4c-2.5 18.1-13.1 46-25.5 66.9-11.2 19.1-28.4 40.4-43.7 54.4-10.7 9.8-10.2 7.9 2.5-8.7 21.3-27.7 34.3-53.3 40.8-80 2.8-11.7 5.2-29.1 7-50.7l1-13.1 26.8-27.7c42.6-44.3 66-73.3 87.4-108.7 3.9-6.4 7.2-11.6 7.5-11.6zm40.7 44.8c0.8 0 0.5 2-3.6 24.1-5.9 31.9-14.1 56.5-29.8 89.7-7.6 16-26.8 51.2-30.4 55.6-0.5 0.7-3.1 4.5-5.7 8.4-12.8 19.7-40.9 50.6-59.9 66.1-42.2 34.3-90 56.7-140.8 65.9-17.7 3.2-18 2.6-2.8-5.8 7.6-4.2 15.6-8.8 17.8-10.3 2.3-1.6 4.4-2.8 4.8-2.8 0.4 0 7.7-4.9 16.2-10.8 56.8-39.5 93.5-87.3 101.5-132 1.3-7.5 1.5-7.9 7.5-12.6 23.7-18.6 58.3-52.2 79.9-77.5 9.8-11.4 32-40 39.7-50.9 2.7-3.9 5.2-7.1 5.6-7.1zm-400.3 70.4c18.3 0.6 22 1.5 26.9 6.4 1.8 1.8 3.3 3.9 4.4 6.2 1.1 2.3 1.8 4.7 2.2 7.3q0.5 3.7-0.3 7.5c-0.5 2.5-1.4 4.9-2.6 7.1-4.2 7.5-10.5 10.5-23 11l-9.6 0.4v26.4l-7.9-0.4-7.9-0.3-0.4-34.4c-0.1-19 0-35.2 0.3-36.1 0.6-1.4 3.5-1.6 17.9-1.1zm48.4-0.3h12.4c22.2 0 33 3.4 40.6 12.7 5 6.2 7.3 13.4 7.3 23 0 16.1-5.4 25.7-18.3 32.3-6.8 3.6-7.6 3.7-24.5 4.2l-17.5 0.6zm98.3-0.1h21.2v13.9h-27.4v16.1h20.8v12.6h-20.7l-0.3 14.7-0.4 14.6-7.9 0.4-8 0.3v-35.5c0-19.5 0.4-35.9 0.8-36.3 0.4-0.4 10.3-0.8 21.9-0.8zm-148.7 33.4h5.4c2.9 0 6.8-0.6 8.6-1.2 5.6-2.1 7.6-10 3.7-15-1.7-2.3-3.3-2.8-9.8-3.1l-7.9-0.5zm65.8 24.1h6.3c15.2 0 22.6-6.9 22.6-21.3 0-14-7.4-21.2-21.6-21.2h-7.3z"/></svg>