
<svg version="1.2" xmlns="http://www.w3.org/2000/svg" viewBox="0 0 256 256" width="256" height="256">
	<path id="mark" fill="#000000" d="m99.2 162.7l84.8-62.6c4.1-3.1 10.1-1.9 12.1 2.9 10.4 25.1 5.7 55.3-15 76.1-20.7 20.7-49.6 25.3-76 14.9l-28.8 13.3c41.3 28.3 91.5 21.3 122.9-10.1 24.8-24.8 32.5-58.7 25.3-89.3l0.1 0.1c-10.4-45 2.6-62.9 29.2-99.6q1-1.3 1.9-2.6l-35.1 35v-0.1c0 0-121.4 122-121.4 122z"/>
	<path id="mark" fill="#000000" d="m81.7 177.9c-29.6-28.3-24.5-72.2 0.8-97.5 18.7-18.7 49.4-26.3 76.1-15.1l28.8-13.2c-5.2-3.8-11.9-7.8-19.5-10.6-34.4-14.2-75.6-7.2-103.6 20.8-26.9 26.9-35.4 68.3-20.8 103.6 10.8 26.4-7 45.1-24.9 63.9-6.3 6.7-12.7 13.4-17.9 20.4 0 0 81-72.3 81-72.3z"/>
</svg>
