<svg enable-background="new 0 0 4000 4000" viewBox="0 0 4000 4000" xmlns="http://www.w3.org/2000/svg" xmlns:xlink="http://www.w3.org/1999/xlink"><linearGradient id="a" gradientTransform="matrix(.7071 -.7071 -.7071 -.7071 2178.4368 9419.168)" gradientUnits="userSpaceOnUse" x1="-499.4831" x2="10739.5215" y1="5372.3696" y2="5372.3696"><stop offset=".032" stop-color="#0179ec"/><stop offset=".2662" stop-color="#5ffac1"/><stop offset=".3392" stop-color="#5ffac1"/><stop offset=".387" stop-color="#08a7f2"/><stop offset=".57" stop-color="#005fe3"/><stop offset=".647" stop-color="#ec7dd9"/><stop offset=".6682" stop-color="#fc91da"/><stop offset=".706" stop-color="#e478d8"/><stop offset=".844" stop-color="#446ddf"/><stop offset=".95" stop-color="#0155dd"/></linearGradient><clipPath id="b"><path d="m2000 4000c-269.9 0-531.8-52.9-778.6-157.3-238.2-100.8-452-244.9-635.6-428.5s-327.8-397.4-428.5-635.6c-104.4-246.8-157.3-508.7-157.3-778.6s52.9-531.8 157.3-778.6c100.7-238.2 244.9-452 428.5-635.6s397.4-327.8 635.6-428.5c246.8-104.4 508.7-157.3 778.6-157.3s531.8 52.9 778.6 157.3c238.2 100.7 452.1 244.9 635.6 428.5 183.6 183.6 327.8 397.4 428.5 635.6 104.4 246.8 157.3 508.7 157.3 778.6s-52.9 531.8-157.3 778.6c-100.8 238.2-244.9 452.1-428.5 635.6-183.6 183.6-397.4 327.8-635.6 428.5-246.8 104.4-508.7 157.3-778.6 157.3zm0-3393.9c-768.6 0-1393.9 625.3-1393.9 1393.9s625.3 1393.9 1393.9 1393.9 1393.9-625.3 1393.9-1393.9-625.3-1393.9-1393.9-1393.9z"/></clipPath><clipPath id="c"><path d="m2000 4000c-269.9 0-531.8-52.9-778.6-157.3-238.2-100.8-452-244.9-635.6-428.5s-327.8-397.4-428.5-635.6c-104.4-246.8-157.3-508.7-157.3-778.6s52.9-531.8 157.3-778.6c100.7-238.2 244.9-452 428.5-635.6s397.4-327.8 635.6-428.5c246.8-104.4 508.7-157.3 778.6-157.3s531.8 52.9 778.6 157.3c238.2 100.7 452.1 244.9 635.6 428.5 183.6 183.6 327.8 397.4 428.5 635.6 104.4 246.8 157.3 508.7 157.3 778.6s-52.9 531.8-157.3 778.6c-100.8 238.2-244.9 452.1-428.5 635.6-183.6 183.6-397.4 327.8-635.6 428.5-246.8 104.4-508.7 157.3-778.6 157.3zm0-3393.9c-768.6 0-1393.9 625.3-1393.9 1393.9s625.3 1393.9 1393.9 1393.9 1393.9-625.3 1393.9-1393.9-625.3-1393.9-1393.9-1393.9z"/></clipPath><radialGradient id="d" cx="2000" cy="4080" gradientTransform="matrix(1 0 0 -1 0 6080)" gradientUnits="userSpaceOnUse" r="1824"><stop offset=".26" stop-color="#fff" stop-opacity="0"/><stop offset=".72" stop-color="#fff"/><stop offset=".97" stop-color="#bad7ff" stop-opacity="0"/></radialGradient><clipPath id="e"><path d="m2000 4000c-269.9 0-531.8-52.9-778.6-157.3-238.2-100.8-452-244.9-635.6-428.5s-327.8-397.4-428.5-635.6c-104.4-246.8-157.3-508.7-157.3-778.6s52.9-531.8 157.3-778.6c100.7-238.2 244.9-452 428.5-635.6s397.4-327.8 635.6-428.5c246.8-104.4 508.7-157.3 778.6-157.3s531.8 52.9 778.6 157.3c238.2 100.7 452.1 244.9 635.6 428.5 183.6 183.6 327.8 397.4 428.5 635.6 104.4 246.8 157.3 508.7 157.3 778.6s-52.9 531.8-157.3 778.6c-100.8 238.2-244.9 452.1-428.5 635.6-183.6 183.6-397.4 327.8-635.6 428.5-246.8 104.4-508.7 157.3-778.6 157.3zm0-3393.9c-768.6 0-1393.9 625.3-1393.9 1393.9s625.3 1393.9 1393.9 1393.9 1393.9-625.3 1393.9-1393.9-625.3-1393.9-1393.9-1393.9z"/></clipPath><radialGradient id="f" cx="2000" cy="4080" gradientTransform="matrix(1 0 0 -1 0 6080)" gradientUnits="userSpaceOnUse" r="2101"><stop offset=".7885" stop-color="#fff" stop-opacity="0"/><stop offset=".8545" stop-color="#edf5ff" stop-opacity=".312"/><stop offset=".986" stop-color="#bfdaff" stop-opacity=".9336"/><stop offset="1" stop-color="#bad7ff"/></radialGradient><path clip-path="url(#b)" d="m3576.5-4370.6 4794.1 4794.1-7947.1 7947.1-4794.1-4794.1z" fill="url(#a)"/><circle clip-path="url(#c)" cx="2000" cy="2000" fill="url(#d)" opacity=".4" r="1824"/><circle clip-path="url(#e)" cx="2000" cy="2000" fill="url(#f)" opacity=".4" r="2101"/></svg>