<svg version="1.2" xmlns="http://www.w3.org/2000/svg" viewBox="0 0 256 256" width="256" height="256"><defs><clipPath clipPathUnits="userSpaceOnUse" id="cp1"><path d="m128 256c-17.27 0-34.04-3.39-49.83-10.07-15.25-6.45-28.93-15.67-40.68-27.42-11.75-11.75-20.98-25.43-27.42-40.68-6.68-15.79-10.07-32.56-10.07-49.83 0-17.27 3.39-34.04 10.07-49.83 6.44-15.25 15.67-28.93 27.42-40.68 11.75-11.75 25.43-20.98 40.68-27.42 15.79-6.68 32.56-10.07 49.83-10.07 17.27 0 34.04 3.39 49.83 10.07 15.25 6.44 28.93 15.67 40.68 27.42 11.75 11.75 20.98 25.43 27.42 40.68 6.68 15.79 10.07 32.56 10.07 49.83 0 17.27-3.39 34.04-10.07 49.83-6.45 15.25-15.67 28.93-27.42 40.68-11.75 11.75-25.43 20.98-40.68 27.42-15.79 6.68-32.56 10.07-49.83 10.07zm0-217.21c-49.19 0-89.21 40.02-89.21 89.21 0 49.19 40.02 89.21 89.21 89.21 49.19 0 89.21-40.02 89.21-89.21 0-49.19-40.02-89.21-89.21-89.21z"/></clipPath><linearGradient id="P" gradientUnits="userSpaceOnUse"/><linearGradient id="g1" x2="1" href="#P" gradientTransform="matrix(508.614,-508.614,306.822,306.822,-126.307,382.307)"><stop offset=".03" stop-color="#0179ec"/><stop offset=".27" stop-color="#5ffac1"/><stop offset=".34" stop-color="#5ffac1"/><stop offset=".39" stop-color="#08a7f2"/><stop offset=".57" stop-color="#005fe3"/><stop offset=".65" stop-color="#ec7dd9"/><stop offset=".67" stop-color="#fc91da"/><stop offset=".71" stop-color="#e478d8"/><stop offset=".84" stop-color="#446ddf"/><stop offset=".95" stop-color="#0155dd"/></linearGradient><clipPath clipPathUnits="userSpaceOnUse" id="cp2"><path d="m128 256c-17.27 0-34.04-3.39-49.83-10.07-15.25-6.45-28.93-15.67-40.68-27.42-11.75-11.75-20.98-25.43-27.42-40.68-6.68-15.79-10.07-32.56-10.07-49.83 0-17.27 3.39-34.04 10.07-49.83 6.44-15.25 15.67-28.93 27.42-40.68 11.75-11.75 25.43-20.98 40.68-27.42 15.79-6.68 32.56-10.07 49.83-10.07 17.27 0 34.04 3.39 49.83 10.07 15.25 6.44 28.93 15.67 40.68 27.42 11.75 11.75 20.98 25.43 27.42 40.68 6.68 15.79 10.07 32.56 10.07 49.83 0 17.27-3.39 34.04-10.07 49.83-6.45 15.25-15.67 28.93-27.42 40.68-11.75 11.75-25.43 20.98-40.68 27.42-15.79 6.68-32.56 10.07-49.83 10.07zm0-217.21c-49.19 0-89.21 40.02-89.21 89.21 0 49.19 40.02 89.21 89.21 89.21 49.19 0 89.21-40.02 89.21-89.21 0-49.19-40.02-89.21-89.21-89.21z"/></clipPath><radialGradient id="g2" cx="0" cy="0" r="1" href="#P" gradientTransform="matrix(116.736,0,0,116.736,128,128)"><stop offset=".26" stop-color="#fff" stop-opacity="0"/><stop offset=".72" stop-color="#fff" stop-opacity="1"/><stop offset=".97" stop-color="#bad7ff" stop-opacity="0"/></radialGradient><clipPath clipPathUnits="userSpaceOnUse" id="cp3"><path d="m128 256c-17.27 0-34.04-3.39-49.83-10.07-15.25-6.45-28.93-15.67-40.68-27.42-11.75-11.75-20.98-25.43-27.42-40.68-6.68-15.79-10.07-32.56-10.07-49.83 0-17.27 3.39-34.04 10.07-49.83 6.44-15.25 15.67-28.93 27.42-40.68 11.75-11.75 25.43-20.98 40.68-27.42 15.79-6.68 32.56-10.07 49.83-10.07 17.27 0 34.04 3.39 49.83 10.07 15.25 6.44 28.93 15.67 40.68 27.42 11.75 11.75 20.98 25.43 27.42 40.68 6.68 15.79 10.07 32.56 10.07 49.83 0 17.27-3.39 34.04-10.07 49.83-6.45 15.25-15.67 28.93-27.42 40.68-11.75 11.75-25.43 20.98-40.68 27.42-15.79 6.68-32.56 10.07-49.83 10.07zm0-217.21c-49.19 0-89.21 40.02-89.21 89.21 0 49.19 40.02 89.21 89.21 89.21 49.19 0 89.21-40.02 89.21-89.21 0-49.19-40.02-89.21-89.21-89.21z"/></clipPath><radialGradient id="g3" cx="0" cy="0" r="1" href="#P" gradientTransform="matrix(134.464,0,0,134.464,128,128)"><stop offset=".79" stop-color="#fff" stop-opacity="0"/><stop offset=".85" stop-color="#edf5ff" stop-opacity=".31"/><stop offset=".99" stop-color="#bfdaff" stop-opacity=".93"/><stop offset="1" stop-color="#bad7ff" stop-opacity="1"/></radialGradient></defs><style>.a{fill:url(#g1)}.b{opacity:.4;fill:url(#g2)}.c{opacity:.4;fill:url(#g3)}</style><g clip-path="url(#cp1)"><path class="a" d="m228.9-279.7l306.8 306.8-508.6 508.6-306.8-306.8z"/></g><g clip-path="url(#cp2)"><path fill-rule="evenodd" class="b" d="m128 244.7c-64.6 0-116.7-52.1-116.7-116.7 0-64.6 52.1-116.7 116.7-116.7 64.6 0 116.7 52.1 116.7 116.7 0 64.6-52.1 116.7-116.7 116.7z"/></g><g clip-path="url(#cp3)"><path fill-rule="evenodd" class="c" d="m128 262.5c-74.4 0-134.5-60.1-134.5-134.5 0-74.4 60.1-134.5 134.5-134.5 74.4 0 134.5 60.1 134.5 134.5 0 74.4-60.1 134.5-134.5 134.5z"/></g></svg>