<svg version="1.2" xmlns="http://www.w3.org/2000/svg" viewBox="0 0 256 256" width="256" height="256"><defs><linearGradient id="P" gradientUnits="userSpaceOnUse"/><linearGradient id="g1" x2="1" href="#P" gradientTransform="matrix(-252.731,254.969,-255.522,-253.279,254.929,.957)"><stop offset=".15" stop-color="#a0a4ee"/><stop offset=".8" stop-color="#596ced"/></linearGradient></defs><style>.a{fill:url(#g1)}</style><path fill-rule="evenodd" class="a" d="m232.3 49.9c14 7.3 22.8 21.8 22.8 37.5v32.8h-58.6c-33.8 0-61.2-27.2-61.2-60.8v-27.9h-15.3v27.9c0 33.6-27.4 60.8-61.2 60.8h-28.1v15.3h28.1c33.8 0 61.2 27.2 61.2 60.8v57.6c-4.2-0.8-8.2-2.2-12-4.1l-85-44.1c-14-7.2-22.9-21.7-22.9-37.5v-80.8c0-15.7 8.9-30.2 22.9-37.5l85-44c12.3-6.4 27-6.4 39.3 0zm22.8 85.5v32.8c0 15.8-8.8 30.2-22.8 37.5l-85 44c-3.8 2-7.9 3.4-12 4.1v-57.6c0-33.5 27.4-60.8 61.2-60.8h58.6z"/></svg>