<svg width="159" height="40" viewBox="0 0 159 40" fill="none" xmlns="http://www.w3.org/2000/svg">
<path fill-rule="evenodd" clip-rule="evenodd" d="M23.2843 0.756428C21.337 -0.252143 19.0179 -0.252143 17.0705 0.756428L3.61887 7.72576C1.39556 8.87712 0 11.1662 0 13.6593V26.4489C0 28.9443 1.39556 31.2311 3.61887 32.3825L17.0705 39.3518C17.6748 39.6646 18.3132 39.8799 18.9677 40V30.8843C18.9677 25.5672 14.6305 21.2587 9.28318 21.2587H4.8434V18.8518H9.28318C14.6328 18.8518 18.9677 14.541 18.9677 9.22615V4.81337H21.3894V9.22615C21.3894 14.5432 25.7266 18.8518 31.0739 18.8518H40.3548V13.6593C40.3548 11.164 38.9593 8.87712 36.7359 7.72576L23.2843 0.756428ZM40.3548 21.2587H31.0739C25.7243 21.2587 21.3894 25.5695 21.3894 30.8843V40C22.0416 39.8821 22.6823 39.6646 23.2866 39.3518L36.7382 32.3825C38.9615 31.2311 40.3571 28.942 40.3571 26.4489V21.2565L40.3548 21.2587Z" fill="url(#paint0_linear_7230_11876)"/>
<path d="M68.4961 12.7709H65.9512C65.8258 12.7709 65.7141 12.8502 65.6753 12.9681L62.1135 23.3371C62.0245 23.6 61.6483 23.6 61.5593 23.3371L57.9952 12.9681C57.9542 12.8502 57.8447 12.7709 57.7193 12.7709H55.1767C54.9715 12.7709 54.8278 12.9749 54.9031 13.1652L60.2527 27.2535C60.2778 27.3215 60.2778 27.3917 60.2527 27.4597L59.7853 28.6995C59.3338 29.9846 58.9985 30.4333 57.619 30.4333H55.6647C55.5028 30.4333 55.3728 30.5625 55.3728 30.7234V32.6C55.3728 32.761 55.5028 32.8901 55.6647 32.8901H58.604C61.0508 32.8901 61.9219 31.3807 62.679 29.3137L68.7697 13.1652C68.8404 12.9749 68.7013 12.7709 68.4961 12.7709Z" fill="#1D1D1B"/>
<path d="M76.2405 12.4354C71.7141 12.4354 69.0142 15.6765 69.0142 20.0371C69.0142 24.3978 71.7118 27.6388 76.2405 27.6388C80.7692 27.6388 83.4919 24.3978 83.4919 20.0371C83.4919 15.6765 80.792 12.4354 76.2405 12.4354ZM76.2405 25.1207C73.4015 25.1207 72.0515 23.0243 72.0515 20.0371C72.0515 17.0499 73.4015 14.9535 76.2405 14.9535C79.0795 14.9535 80.4568 17.0499 80.4568 20.0371C80.4568 23.0243 79.1069 25.1207 76.2405 25.1207Z" fill="#1D1D1B"/>
<path d="M98.0493 12.7709H95.6823C95.5204 12.7709 95.3905 12.9001 95.3905 13.061V20.8168H95.3608C95.3608 24.3932 92.7476 25.0369 91.6211 25.0369C89.4844 25.0369 88.5563 23.6952 88.5563 21.8231V13.0632C88.5563 12.9023 88.4264 12.7731 88.2645 12.7731H85.9271C85.7652 12.7731 85.6353 12.9023 85.6353 13.0632V22.1336C85.6353 25.1253 87.293 27.6365 90.8367 27.6365C92.8821 27.6365 94.3848 26.6914 95.3722 25.4086C95.4155 25.3542 95.5022 25.3814 95.5022 25.4517V27.011C95.5022 27.1719 95.6322 27.3011 95.7941 27.3011H98.047C98.2089 27.3011 98.3389 27.1719 98.3389 27.011V13.0632C98.3389 12.9023 98.2089 12.7731 98.047 12.7731L98.0493 12.7709Z" fill="#1D1D1B"/>
<path d="M119.297 22.1313H116.871C116.736 22.1313 116.618 22.222 116.586 22.3535C116.191 24.0669 114.953 25.1208 113.118 25.1208C110.504 25.1208 109.152 23.0243 109.152 20.0371C109.152 17.05 110.502 14.9535 113.118 14.9535C114.926 14.9535 116.162 15.9553 116.581 17.6143C116.613 17.7435 116.73 17.8296 116.864 17.8296H119.295C119.48 17.8296 119.616 17.6619 119.585 17.4829C119.024 14.4594 116.775 12.4377 113.118 12.4377C108.817 12.4377 106.117 15.6788 106.117 20.0394C106.117 24.4001 108.815 27.6411 113.118 27.6411C116.613 27.6411 119.012 25.5628 119.585 22.4827C119.616 22.3036 119.48 22.1359 119.295 22.1359V22.1313H119.297Z" fill="#1D1D1B"/>
<path d="M128.334 12.4354C123.808 12.4354 121.108 15.6765 121.108 20.0371C121.108 24.3978 123.808 27.6388 128.334 27.6388C132.861 27.6388 135.588 24.3978 135.588 20.0371C135.588 15.6765 132.888 12.4354 128.334 12.4354ZM128.334 25.1207C125.495 25.1207 124.143 23.0243 124.143 20.0371C124.143 17.0499 125.493 14.9535 128.334 14.9535C131.176 14.9535 132.551 17.0499 132.551 20.0371C132.551 23.0243 131.201 25.1207 128.334 25.1207Z" fill="#1D1D1B"/>
<path d="M154.106 12.4354C151.858 12.4354 150.33 13.5777 149.37 15.0894C149.341 15.1393 149.27 15.1348 149.245 15.0804C148.497 13.4984 147.053 12.4354 144.972 12.4354C142.89 12.4354 141.601 13.3669 140.746 14.6089C140.705 14.6679 140.614 14.6384 140.614 14.5659V13.0632C140.614 12.9023 140.484 12.7731 140.322 12.7731H138.069C137.907 12.7731 137.777 12.9023 137.777 13.0632V27.011C137.777 27.1719 137.907 27.3011 138.069 27.3011H140.436C140.598 27.3011 140.728 27.1719 140.728 27.011V19.2552C140.728 15.6787 143.033 15.035 144.185 15.035C145.984 15.035 146.912 16.3768 146.912 18.2466V27.0087C146.912 27.1696 147.042 27.2988 147.204 27.2988H149.571C149.733 27.2988 149.865 27.1696 149.865 27.0087V19.2529C149.865 15.6765 152.168 15.0328 153.322 15.0328C155.121 15.0328 156.047 16.3745 156.047 18.2443V27.0064C156.047 27.1673 156.179 27.2965 156.341 27.2965H158.708C158.87 27.2965 159 27.1673 159 27.0064V17.9384C159 14.9467 157.313 12.4354 154.111 12.4354H154.106Z" fill="#1D1D1B"/>
<path d="M104.43 24.511L102.909 23.6384C102.847 23.6044 102.772 23.6044 102.71 23.6384L101.189 24.511C101.128 24.545 101.089 24.6107 101.089 24.681V26.4261C101.089 26.4964 101.128 26.5621 101.187 26.5961L102.708 27.4687C102.74 27.4846 102.774 27.4959 102.806 27.4959C102.838 27.4959 102.875 27.4868 102.904 27.4687L104.425 26.5961C104.487 26.5621 104.523 26.4941 104.523 26.4261V24.681C104.523 24.6107 104.487 24.545 104.425 24.511H104.43Z" fill="#1D1D1B"/>
<defs>
<linearGradient id="paint0_linear_7230_11876" x1="40.3252" y1="-0.0277651" x2="0.326009" y2="40.3256" gradientUnits="userSpaceOnUse">
<stop offset="0.15" stop-color="#A0A4EE"/>
<stop offset="0.8" stop-color="#596CED"/>
</linearGradient>
</defs>
</svg>
