<svg version="1.2" xmlns="http://www.w3.org/2000/svg" viewBox="0 0 512 512" width="512" height="512"><defs><linearGradient id="P" gradientUnits="userSpaceOnUse"/><linearGradient id="g1" x2="1" href="#P" gradientTransform="matrix(235.978,298.986,-356.443,281.326,108.539,27.706)"><stop stop-color="#6f34f3"/><stop offset="1" stop-color="#e86df5"/></linearGradient><linearGradient id="g2" x2="1" href="#P" gradientTransform="matrix(0,-328.636,328.636,0,256,422.4)"><stop stop-color="#5c1173"/><stop offset="1" stop-color="#180633"/></linearGradient><linearGradient id="g3" x2="1" href="#P" gradientTransform="matrix(0,95.735,-153.177,0,256,211.2)"><stop stop-color="#fff"/><stop offset="1" stop-color="#fcf3ff"/></linearGradient></defs><style>.a{fill:url(#g1)}.b{fill:url(#g2)}.c{fill:url(#g3)}</style><path fill-rule="evenodd" class="a" d="m256 0c141.4 0 256 114.6 256 256 0 141.4-114.6 256-256 256-60.5 0-116.2-21-160-56.1v43.3c0 7.1-5.7 12.8-12.8 12.8h-70.4c-7.1 0-12.8-5.7-12.8-12.8v-243.2-4.4c2.4-139.4 116.1-251.6 256-251.6zm0 89.6c-91.9 0-166.4 74.5-166.4 166.4 0 91.9 74.5 166.4 166.4 166.4h117.3c3.5 0 6.4-2.9 6.4-6.4q0-0.7-0.2-1.4-5.2-23.8-4.6-33.3 0.6-7.2 5.1-14.4c26.4-29.4 42.4-68.3 42.4-110.9 0-91.9-74.5-166.4-166.4-166.4z"/><path fill-rule="evenodd" class="b" d="m256 89.6c-91.9 0-166.4 74.5-166.4 166.4 0 91.9 74.5 166.4 166.4 166.4q0.9 0 1.7 0h115.6c3.5 0 6.4-2.9 6.4-6.4q0-0.7-0.2-1.4-5.2-23.8-4.6-33.3 0.6-7.2 5.1-14.4c26.4-29.4 42.4-68.3 42.4-110.9 0-91.9-74.5-166.4-166.4-166.4z"/><path fill-rule="evenodd" class="c" d="m179.2 236.8v44.8c0 14.1 11.5 25.6 25.6 25.6 14.1 0 25.6-11.5 25.6-25.6v-44.8c0-14.1-11.5-25.6-25.6-25.6-14.1 0-25.6 11.5-25.6 25.6zm102.4 0v44.8c0 14.1 11.5 25.6 25.6 25.6 14.1 0 25.6-11.5 25.6-25.6v-44.8c0-14.1-11.5-25.6-25.6-25.6-14.1 0-25.6 11.5-25.6 25.6z"/></svg>