<svg version="1.2" xmlns="http://www.w3.org/2000/svg" viewBox="0 0 256 256" width="256" height="256"><style></style><path  d="m250.9 141.4v-58.2h-10.9v23.6q0 0 0 0v1.2 0.4c-3.7-3.6-8.4-6.1-13.6-7q-1.9-0.3-3.8-0.3c-12.9 0.4-24 10-25.9 23.2-1 7.1 0.8 14.2 5.1 20 4.3 5.7 10.7 9.5 17.8 10.5 7.1 1 14.2-0.8 20-5.1q1-0.8 2-1.7l7.6 6.1 6.8-8.5zm-27.7 3.7c-7.4 0-13.8-4.8-16-11.5q-0.9-2.6-0.9-5.4c0-7.8 5.3-14.4 12.5-16.4q2.1-0.6 4.4-0.6c2.9 0 5.7 0.8 8.1 2.1 2.1 1.1 4 2.7 5.5 4.7 1.7 2.3 2.8 4.9 3.2 7.7q0.2 1.2 0.2 2.5c0 9.4-7.6 16.9-17 16.9z"/><path  d="m190.2 123.3c-0.2-12.3-10.3-22.3-22.7-22.3q-1.2 0-2.5 0.2c-3.7 0.5-7.2 2.2-9.9 4.6l0.1-4.8v-0.1h-10.6v52.9h10.6v-11.7-17.2-0.9q0 0 0-0.1v-0.2c0-6.8 5.6-12.2 12.3-12.2 2.6 0 5.1 0.8 7.1 2.2 3.3 2.2 5.2 6 5.3 9.9 0 0.8 0 1.7 0 2.9v15.6 11.9h10.3z"/><path fill-rule="evenodd" d="m127.9 95.5c-3.5 0-6.3-2.8-6.3-6.3 0-3.5 2.8-6.3 6.3-6.3 3.5 0 6.3 2.8 6.3 6.3 0 3.5-2.8 6.3-6.3 6.3z"/><path fill-rule="evenodd" d="m122.5 100.8v19.9 1.7 27.4 0.1 0.1 3.8h11v-26.8-0.1-0.1-4.4-0.8-20.8z"/><path  d="m111.4 123.3c-0.2-12.3-10.3-22.3-22.7-22.3q-0.1 0-0.2 0c-4.7 0.1-8.9 2.2-12.2 5.6v-0.8q0 0 0 0v-4.9-18h-10.6v70.9h10.6v-11.7-17.2-0.9q0 0 0-0.1v-0.2c0.1-6.8 5.6-12.2 12.4-12.2 2.6 0 5.1 0.8 7.1 2.2 3.2 2.2 5.1 6 5.2 9.9 0 0.8 0 1.7 0 2.9v15.6 11.8h10.4z"/><path  d="m5.1 114.9v58.2h10.9v-23.6q0 0 0 0v-1.2-0.3c3.7 3.6 8.4 6.1 13.6 6.9q1.8 0.3 3.8 0.3c12.9-0.4 24-10 25.9-23.1 1-7.2-0.8-14.3-5.1-20-4.4-5.8-10.7-9.5-17.8-10.6-7.1-1-14.2 0.9-20 5.2q-1 0.8-2 1.6l-7.6-6.1-6.8 8.5zm27.6-3.7c7.5 0 13.8 4.8 16.1 11.5q0.9 2.6 0.9 5.5c0 7.8-5.3 14.4-12.5 16.3q-2.2 0.6-4.5 0.6c-2.9 0-5.6-0.7-8-2-2.2-1.2-4.1-2.8-5.6-4.8-1.7-2.3-2.8-4.9-3.1-7.7q-0.2-1.2-0.2-2.4c0-9.4 7.6-17 16.9-17z"/></svg>