<svg version="1.2" xmlns="http://www.w3.org/2000/svg" viewBox="0 0 256 256" width="256" height="256"><style>.a{fill:#4d6bfe}</style><path class="a" d="m253 48.7c-2.7-1.4-3.9 1.2-5.5 2.5-0.5 0.4-0.9 1-1.4 1.4-3.9 4.4-8.6 7.2-14.6 6.8-8.8-0.5-16.3 2.4-23 9.2-1.4-8.5-6.1-13.5-13.2-16.8-3.8-1.6-7.5-3.3-10.2-7-1.8-2.6-2.3-5.5-3.2-8.4-0.6-1.7-1.2-3.4-3.1-3.7-2.1-0.4-3 1.5-3.8 2.9-3.3 6.3-4.6 13.1-4.5 19.9 0.3 15.6 6.7 28 19.5 36.8 1.5 0.9 1.9 1.9 1.4 3.4-0.8 3.1-1.9 6-2.8 9-0.6 1.9-1.5 2.4-3.5 1.6-7-3-13.1-7.4-18.5-12.8-9.1-8.9-17.3-18.9-27.6-26.6q-3.5-2.7-7.3-5.1c-10.4-10.3 1.4-18.8 4.2-19.8 2.8-1.1 0.9-4.7-8.3-4.7-9.3 0.1-17.7 3.2-28.6 7.5-1.5 0.6-3.2 1.1-4.9 1.4-9.8-1.9-20-2.3-30.7-1.1-20 2.3-36 11.9-47.7 28.4-14.2 19.7-17.5 42.2-13.4 65.6 4.2 24.7 16.6 45.1 35.7 61.1 19.7 16.6 42.5 24.7 68.4 23.2 15.8-0.9 33.3-3.1 53-20.1 5.1 2.5 10.3 3.5 18.9 4.3 6.7 0.6 13.2-0.4 18.2-1.4 7.8-1.7 7.3-9.1 4.4-10.4-22.9-10.8-17.8-6.4-22.4-10 11.6-14.1 29.2-28.6 36-75.7 0.6-3.8 0.1-6.1 0-9.2 0-1.8 0.4-2.5 2.5-2.7 5.7-0.7 11.3-2.3 16.4-5.2 14.8-8.2 20.8-21.7 22.2-38 0.2-2.5 0-5-2.6-6.3zm-129.3 146.1c-22.2-17.8-32.9-23.6-37.4-23.4-4.1 0.3-3.4 5.1-2.5 8.3 1 3.1 2.2 5.3 4 8 1.2 1.8 2 4.5-1.3 6.5-7.1 4.5-19.5-1.5-20.1-1.8-14.5-8.7-26.5-20.1-35.1-35.8-8.2-15-13-31.2-13.8-48.4-0.2-4.2 1-5.6 5.1-6.4 5.4-1 10.9-1.2 16.3-0.4 22.6 3.3 41.9 13.6 58 29.9 9.3 9.3 16.3 20.5 23.4 31.3 7.7 11.5 15.9 22.5 26.4 31.5 3.7 3.2 6.7 5.6 9.5 7.3-8.5 1-22.8 1.2-32.5-6.6zm43.7-52.4c-2.1 0.9-4.3 1.7-6.3 1.7-3.2 0.2-6.6-1.1-8.4-2.7-3-2.5-5-3.9-5.9-8.2-0.4-1.9-0.2-4.7 0.2-6.3 0.7-3.6-0.1-5.9-2.6-7.9-2-1.7-4.5-2.2-7.3-2.2-1 0-2-0.4-2.7-0.8-1.2-0.6-2.1-2-1.2-3.9 0.3-0.6 1.7-2 2-2.2 3.8-2.2 8.2-1.5 12.2 0.1 3.8 1.6 6.6 4.4 10.6 8.5 4.2 4.9 5 6.2 7.3 9.8 1.9 2.9 3.6 5.9 4.8 9.2 0.7 2.1-0.3 3.9-2.7 4.9zm-33-17.2c0-1.9 1.4-3.4 3.2-3.4 0.5 0 0.8 0.1 1.2 0.3 0.4 0.1 0.8 0.4 1.2 0.7 0.5 0.7 0.9 1.5 0.9 2.4 0 1.8-1.5 3.3-3.3 3.3-1.8 0-3.2-1.5-3.2-3.3z"/></svg>